<?xml version="1.0" encoding="utf-8"?>
<!-- Generator: Adobe Illustrator 26.5.0, SVG Export Plug-In . SVG Version: 6.00 Build 0)  -->
<svg version="1.1" id="Layer_1" xmlns="http://www.w3.org/2000/svg" xmlns:xlink="http://www.w3.org/1999/xlink" x="0px" y="0px"
	 viewBox="0 0 235 72" style="enable-background:new 0 0 235 72;" xml:space="preserve">
<style type="text/css">
	.st0{fill:url(#SVGID_1_);}
	.st1{fill:#9AB044;}
	.st2{fill:#009DE2;}
	.st3{fill:#161616;}
	.st4{fill:#2D2D2D;}
	.st5{clip-path:url(#SVGID_00000071530295079320710290000014602062177260236459_);fill:#2D2D2D;}
</style>
<radialGradient id="SVGID_1_" cx="-171.5469" cy="342.8568" r="0.9991" gradientTransform="matrix(11.4277 0 0 -3.9825 1984.4277 1431.1466)" gradientUnits="userSpaceOnUse">
	<stop  offset="0" style="stop-color:#7FBDFF"/>
	<stop  offset="1" style="stop-color:#FFFFFF;stop-opacity:0"/>
</radialGradient>
<path class="st0" d="M24,69.7c6.3,0,11.4-1.8,11.4-4c0-2.2-5.1-4-11.4-4s-11.4,1.8-11.4,4C12.6,67.9,17.7,69.7,24,69.7z"/>
<path class="st1" d="M35.2,21.4l-1.5-0.8c-0.1-0.1-0.2-0.2-0.2-0.3v-3.6c0-0.2-0.1-0.3-0.2-0.4l-4.6-2.9c-0.2-0.1-0.3-0.1-0.5,0
	l-3.6,2.3c-0.2,0.1-0.2,0.2-0.2,0.4v3.7c0,0.2-0.1,0.2-0.2,0.3L22,21.5c-0.2,0.1-0.2,0.2-0.2,0.4v7.8c0,0.2-0.1,0.2-0.2,0.3
	c-0.2,0.1-0.2,0.1-0.4,0l-1.2-0.9c-0.2-0.2-0.4-0.2-0.5,0l-4.6,3.3c-0.2,0.1-0.2,0.2-0.2,0.4v5.1c0,0.2,0.2,0.4,0.4,0.5l0.7,0.2
	c0.2,0,0.2,0,0.4-0.1c0.1-0.1,0.2-0.2,0.2-0.3v-4.8c0-0.2,0.1-0.2,0.2-0.3l2.9-2c0.1-0.1,0.2-0.1,0.4,0c0.2,0.1,0.2,0.2,0.2,0.3v7.6
	c0,0.2,0.1,0.3,0.2,0.4c0.1,0.1,0.2,0.1,0.2,0.1c0.1,0,0.1,0,0.2,0l2.7-0.9c0.2-0.1,0.3-0.2,0.3-0.4V22.7c0-0.1,0.1-0.2,0.2-0.3
	l0.8-0.6v14.3h1.1V17.3c0-0.2,0.1-0.2,0.2-0.3l2.3-1.4c0.1-0.1,0.2-0.1,0.4,0c0.1,0.1,0.2,0.2,0.2,0.3v19.8c0,0.2,0.1,0.3,0.2,0.4
	c0.2,0.1,0.3,0.1,0.5,0l1-0.6c0.2-0.1,0.2-0.2,0.2-0.4V20.2l1.2,0.7c0.1,0.1,0.2,0.2,0.2,0.3v13.3l1.3-0.8c0.2-0.1,0.2-0.2,0.2-0.4
	V22l1.1,0.6c0.2,0.1,0.2,0.2,0.2,0.3v9.9l0.9-0.5V22.1C35.5,21.7,35.4,21.5,35.2,21.4z"/>
<path class="st2" d="M7.8,28.5c-0.1-0.6-0.1-1.2-0.1-1.8c0-1.8,0.3-3.6,0.8-5.2C10.8,14.8,17,10.1,24.3,10c0.1,0,0.1,0,0.2,0
	c0.1,0,0.1,0,0.2,0c2.7,0,5.2,0.6,7.4,1.7c3.7,1.8,6.5,4.9,8.1,8.7c0.4,0.8,0.6,1.7,0.8,2.7c2-1.4,4.1-2.8,6.2-4.4
	c-0.8-2.2-2-4.2-3.4-6.1c-1.5-1.9-3.3-3.6-5.2-5c-0.3-0.2-0.7-0.5-1.1-0.7c-1.7-1.1-3.7-2-5.8-2.6c-1.1-0.3-2.1-0.6-3.3-0.8
	c-1.3-0.2-2.6-0.3-4-0.3c-2.1,0-4.2,0.3-6.1,0.8c-3,0.8-5.6,2-8.1,3.8c-3.1,2.2-5.6,5.1-7.5,8.5c-1.4,2.6-2.3,5.5-2.7,8.6
	C0.1,25.7,0,26.7,0,27.6c0,0.2,0.2,3.3,2.6,9C3.4,33.7,5.4,31,7.8,28.5z"/>
<path class="st2" d="M34.8,37.6C25.6,44.8,18,48.3,12.3,48.3c-1.1,0-2.3-0.2-3.3-0.5c1.2,1.7,2.6,3.6,4.1,5.6
	c1.1,1.4,2.3,2.8,3.5,4.3c1.7,2,3.7,4.2,5.9,6.4c0.4,0.5,0.8,0.8,1.2,1.3c0.2,0.2,0.4,0.4,0.5,0.5c0.2-0.2,0.5-0.5,0.6-0.7
	c4.5-4.5,8.1-8.8,11-12.6c0.3-0.4,0.6-0.8,0.8-1.1c0.5-0.6,0.9-1.2,1.4-1.8c0.3-0.4,0.5-0.8,0.8-1.1c0.8-1.2,1.7-2.4,2.4-3.6
	c0.2-0.4,0.5-0.8,0.8-1.2c2.1-3.4,3.5-6.3,4.4-8.7c0.3-0.8,0.6-1.5,0.8-2.2c1.2-3.6,1.3-5.5,1.3-5.7c0-0.7-0.1-1.4-0.1-2
	C44.7,29.2,39.9,33.6,34.8,37.6z"/>
<path class="st1" d="M61,11c-0.4-0.3-1-0.3-2.7,1.1c-0.1,0.1-0.1,0.1-0.1,0.2l-1.3-0.4l0.1-0.1c0.1,0,0.1-0.1,0.1-0.2l-0.1-0.1
	c0-0.1-0.1-0.1-0.2-0.1l-0.4,0.3l-1.4-0.4l0.1-0.1c0.1,0,0.1-0.1,0.1-0.2L55,11c0-0.1-0.1-0.1-0.2-0.1l-0.3,0.3l-1.1-0.3l-0.8,0.6
	l4.1,2.1c-0.8,0.8-1.7,1.6-2.3,2.1L53,15.3l-0.5,0.4l1.2,0.9l-0.3,0.4l0.4-0.1l0.5,1.4l0.5-0.4l-0.1-1.5c0.6-0.5,1.6-1,2.6-1.7
	l1,4.5l0.8-0.6l-0.1-1.1l0.3-0.3c0.1,0,0.1-0.1,0.1-0.2l-0.1-0.1c0-0.1-0.1-0.1-0.2-0.1l-0.1,0.1l0-1.4l0.4-0.3
	c0.1,0,0.1-0.1,0.1-0.2l-0.1-0.1c0-0.1-0.1-0.1-0.2-0.1l-0.1,0.1l0-1.4c0.1,0,0.1-0.1,0.2-0.1c1.8-1.3,1.9-1.8,1.8-2.3
	C61,11,61,11,61,11z"/>
<path class="st1" d="M49.5,20.8c0.1-0.1,0-0.2-0.2-0.2C44,24.3,20.8,40.1,13.2,37.5c-6.2-2.2-0.3-8.3,3.3-11.4
	c0.2-0.2,0-0.4-0.2-0.3c-5.4,3.6-17,12.5-9.1,18.2C17.6,51.6,44.2,26.1,49.5,20.8z"/>
<path class="st3" d="M164.6,17.6h6.6v34.6h-6.6V17.6z"/>
<path class="st3" d="M188.3,26c4.2,0,7.1,2,8.6,4.1v-3.7h6.6v25.9h-6.6v-3.8c-1.5,2.3-4.5,4.2-8.7,4.2c-6.6,0-11.9-5.4-11.9-13.5
	C176.3,31.1,181.7,26,188.3,26z M190,31.8c-3.5,0-6.8,2.6-6.8,7.5c0,4.9,3.3,7.7,6.8,7.7c3.7,0,6.9-2.7,6.9-7.6
	C196.9,34.5,193.5,31.8,190,31.8z"/>
<path class="st3" d="M227.7,37.9c0-4.2-2.3-6.4-5.8-6.4c-3.6,0-5.9,2.3-5.9,6.4v14.3h-6.6V26.4h6.6v3.3c1.7-2.2,4.5-3.6,7.8-3.6
	c6.1,0,10.4,3.9,10.4,11.1v15.2h-6.6V37.9z"/>
<path class="st4" d="M209.4,39.8v12.4h6.6V37.9c0-0.4,0.1-0.8,0.1-1.1L209.4,39.8z"/>
<path class="st4" d="M234.3,52.3v-12l-6.6-2.5c0,0.1,0,0.2,0,0.2v14.3H234.3z"/>
<path class="st4" d="M196.8,45.8l-2.2-0.7c-1.3,1.2-3,1.9-4.7,1.9c-2.9,0-5.7-2-6.5-5.4l-7-2.2c0.1,8,5.3,13.3,11.9,13.3
	c4.1,0,7.1-2,8.7-4.2v3.8h6.6v-9.5L196.8,45.8z"/>
<path class="st4" d="M166.5,36.4l-2,0.7v15.2h6.5V37.9L166.5,36.4z"/>
<path class="st3" d="M101.7,19.5L92.3,53h-7.9l-6.3-23.9L71.6,53l-7.9,0l-9-33.6h7.2l5.9,26l6.8-26h7.5l6.4,25.9l6-25.9H101.7z
	 M130.8,39.1c0,1-0.1,1.8-0.2,2.6h-19.4c0.2,1.9,0.8,3.4,2,4.5c1.2,1.1,2.6,1.6,4.4,1.6c2.5,0,4.3-1.1,5.3-3.2h7.2
	c-0.8,2.6-2.2,4.7-4.4,6.3c-2.2,1.6-4.8,2.4-8,2.4c-2.6,0-4.9-0.6-6.9-1.7c-2-1.2-3.6-2.8-4.8-4.8c-1.1-2.1-1.7-4.5-1.7-7.2
	c0-2.8,0.6-5.2,1.7-7.2c1.1-2.1,2.7-3.7,4.7-4.8c2-1.1,4.3-1.7,7-1.7c2.5,0,4.8,0.5,6.8,1.6c2,1.1,3.6,2.6,4.7,4.7
	C130.2,34.2,130.8,36.5,130.8,39.1z M123.8,37.2c0-1.7-0.7-3.1-1.9-4.1c-1.2-1.1-2.7-1.6-4.5-1.6c-1.7,0-3.1,0.5-4.2,1.5
	c-1.1,1-1.8,2.4-2.1,4.2H123.8z M160.1,29.9c0,1.8-0.4,3.5-1.3,5c-0.8,1.6-2.2,2.8-4,3.8c-1.8,1-4.1,1.4-6.8,1.4h-5.6V53h-6.7V19.5
	H148c2.6,0,4.8,0.4,6.6,1.3c1.8,0.9,3.2,2.1,4.1,3.7C159.7,26.1,160.1,27.9,160.1,29.9z M147.8,34.7c1.9,0,3.2-0.4,4.1-1.2
	c0.9-0.9,1.3-2.1,1.3-3.6c0-3.3-1.8-4.9-5.5-4.9h-5.3v9.7H147.8z"/>
<g>
	<polygon class="st3" points="72.1,140.1 70.9,145.2 69.4,139.2 63.2,137.1 67,151.6 74.2,151.6 77.1,141.8 	"/>
	<polygon class="st3" points="59.8,136 55.7,137.4 53.7,145.3 52.1,138.6 46.7,140.4 50,151.6 57.3,151.6 61.2,136.5 	"/>
	<path class="st3" d="M97.1,146.5c-1.7,0-3.2-0.5-4.4-1.6c-0.6-0.5-1.1-1.2-1.4-2l-6.6,0.8c0.2,0.6,0.5,1.3,0.8,1.8
		c1.2,2.1,2.7,3.7,4.8,4.8c2,1.1,4.4,1.7,6.9,1.7c3.2,0,5.8-0.8,8-2.4c2.2-1.7,3.6-3.8,4.4-6.3h-7.2
		C101.4,145.4,99.6,146.5,97.1,146.5z"/>
</g>
<g>
	<defs>
		<polygon id="SVGID_00000127012326436899723460000009699811640171822984_" points="159.1,37.5 146.2,47.5 125.9,42.5 101,46.5 
			84.1,36.9 52.5,41.5 52.5,54.4 159.1,54.4 		"/>
	</defs>
	<clipPath id="SVGID_00000139289235480975874650000011583760911673604016_">
		<use xlink:href="#SVGID_00000127012326436899723460000009699811640171822984_"  style="overflow:visible;"/>
	</clipPath>
	<path style="clip-path:url(#SVGID_00000139289235480975874650000011583760911673604016_);fill:#2D2D2D;" d="M101.7,19.2l-9.4,33.5
		h-7.9l-6.3-23.9l-6.6,23.9l-7.9,0l-9-33.6h7.2l5.9,26l6.8-26h7.5L88.5,45l6-25.9H101.7z M130.8,38.8c0,1-0.1,1.8-0.2,2.6h-19.4
		c0.2,1.9,0.8,3.4,2,4.5c1.2,1.1,2.6,1.6,4.4,1.6c2.5,0,4.3-1.1,5.3-3.2h7.2c-0.8,2.6-2.2,4.7-4.4,6.3c-2.2,1.6-4.8,2.4-8,2.4
		c-2.6,0-4.9-0.6-6.9-1.7c-2-1.2-3.6-2.8-4.8-4.8c-1.1-2.1-1.7-4.5-1.7-7.2c0-2.8,0.6-5.2,1.7-7.2c1.1-2.1,2.7-3.7,4.7-4.8
		c2-1.1,4.3-1.7,7-1.7c2.5,0,4.8,0.5,6.8,1.6c2,1.1,3.6,2.6,4.7,4.7C130.2,33.9,130.8,36.2,130.8,38.8z M123.8,36.9
		c0-1.7-0.7-3.1-1.9-4.1c-1.2-1.1-2.7-1.6-4.5-1.6c-1.7,0-3.1,0.5-4.2,1.5c-1.1,1-1.8,2.4-2.1,4.2H123.8z M160.1,29.5
		c0,1.8-0.4,3.5-1.3,5c-0.8,1.6-2.2,2.8-4,3.8c-1.8,1-4.1,1.4-6.8,1.4h-5.6v12.9h-6.7V19.2H148c2.6,0,4.8,0.4,6.6,1.3
		c1.8,0.9,3.2,2.1,4.1,3.7C159.7,25.8,160.1,27.5,160.1,29.5z M147.8,34.4c1.9,0,3.2-0.4,4.1-1.2c0.9-0.9,1.3-2.1,1.3-3.6
		c0-3.3-1.8-4.9-5.5-4.9h-5.3v9.7H147.8z"/>
</g>
</svg>
