<svg width="20" height="20" viewBox="0 0 20 20" fill="none" xmlns="http://www.w3.org/2000/svg">
<g clip-path="url(#clip0_3950_9264)">
<path d="M18.7839 19.6246C18.5837 19.4764 18.3621 19.3496 18.1869 19.1758C16.5097 17.5076 14.8348 15.8343 13.1622 14.1559C13.1141 14.0981 13.0714 14.0359 13.0349 13.97C11.1026 15.4514 8.99286 15.9876 6.66055 15.4853C4.72315 15.0671 3.17601 14.0086 2.06515 12.372C-0.0427661 9.27173 0.457613 5.27555 3.03385 2.77468C5.91439 -0.0217175 10.1962 -0.0217175 13.0772 2.37135C16.0864 4.87035 16.8196 9.45807 14.1258 12.8729C14.1723 12.9222 14.2187 12.9756 14.2703 13.0263C15.9429 14.6991 17.6155 16.3744 19.288 18.0522C19.466 18.2315 19.5965 18.4574 19.7494 18.6618V18.9959C19.7044 19.1449 19.6233 19.2803 19.5133 19.3903C19.4033 19.5004 19.2678 19.5815 19.1189 19.6265L18.7839 19.6246ZM14.2118 8.14118C14.1899 4.85734 11.5268 2.20453 8.26855 2.21568C4.99215 2.2273 2.33043 4.89684 2.34391 8.15652C2.35738 11.4311 4.99215 14.0885 8.28295 14.0802C11.6086 14.0704 14.1899 11.4023 14.2118 8.14118Z" fill="#999999"/>
</g>
<defs>
<clipPath id="clip0_3950_9264">
<rect width="19" height="19" fill="white" transform="translate(0.75 0.625)"/>
</clipPath>
</defs>
</svg>
