<svg width="21" height="20" viewBox="0 0 21 20" fill="none" xmlns="http://www.w3.org/2000/svg">
<path d="M10.7347 7.00611L16.3024 7.00611C16.3568 7.00611 16.4195 6.98958 16.4639 7.0109C16.5549 7.05442 16.6607 7.10186 16.7164 7.17932C16.7874 7.27812 16.7295 7.38692 16.6476 7.47091C16.405 7.7213 16.1625 7.97125 15.9202 8.22077L11.0155 13.2626C10.7852 13.4998 10.6851 13.4993 10.4526 13.26L4.90103 7.55099C4.86707 7.51617 4.81657 7.48614 4.80308 7.44436C4.77478 7.35732 4.73037 7.24896 4.75954 7.17671C4.78871 7.10447 4.89494 7.05355 4.97722 7.01438C5.02641 6.99088 5.09476 7.00611 5.15484 7.00611L10.7347 7.00611Z" fill="#FCB53B"/>
</svg>
