<svg width="20" height="21" viewBox="0 0 20 21" fill="none" xmlns="http://www.w3.org/2000/svg">
<path d="M9.98472 7.07838L15.5524 7.07838C15.6068 7.07838 15.6695 7.06184 15.7139 7.08317C15.8049 7.12669 15.9107 7.17412 15.9664 7.25159C16.0374 7.35038 15.9795 7.45918 15.8976 7.54318C15.655 7.79356 15.4125 8.04351 15.1702 8.29303L10.2655 13.3349C10.0352 13.5721 9.93509 13.5716 9.70261 13.3323L4.15103 7.62325C4.11707 7.58844 4.06657 7.55841 4.05308 7.51663C4.02478 7.42959 3.98037 7.32122 4.00954 7.24898C4.03871 7.17673 4.14494 7.12582 4.22722 7.08665C4.27641 7.06315 4.34476 7.07838 4.40484 7.07838L9.98472 7.07838Z" fill="#999999"/>
</svg>
